<svg xmlns="http://www.w3.org/2000/svg" xmlns:xlink="http://www.w3.org/1999/xlink" width="7736" zoomAndPan="magnify" viewBox="0 0 5802 1118.99995" height="1492" preserveAspectRatio="xMidYMid meet" version="1.0"><defs><g/></defs><g fill="#f6f8f2" fill-opacity="1"><g transform="translate(17.50368, 1106.067744)"><g><path d="M 677.1875 -192.59375 L 327.71875 -192.59375 L 259.375 0 L 6.21875 0 L 386.75 -950.546875 L 619.71875 -950.546875 L 1000.25 0 L 745.53125 0 Z M 403.828125 -408.484375 L 601.078125 -408.484375 L 503.234375 -684.953125 Z M 403.828125 -408.484375 "/></g></g></g><g fill="#f6f8f2" fill-opacity="1"><g transform="translate(1023.968074, 1106.067744)"><g><path d="M 41.9375 -24.84375 L 41.9375 -242.296875 C 78.175781 -231.941406 126.84375 -223.140625 187.9375 -215.890625 C 249.03125 -208.640625 312.710938 -205.015625 378.984375 -205.015625 C 421.429688 -205.015625 453.785156 -207.085938 476.046875 -211.234375 C 498.316406 -215.378906 509.453125 -222.628906 509.453125 -232.984375 C 509.453125 -238.160156 505.828125 -243.59375 498.578125 -249.28125 C 491.328125 -254.976562 476.566406 -261.453125 454.296875 -268.703125 C 432.035156 -275.953125 399.164062 -283.203125 355.6875 -290.453125 C 328.757812 -295.628906 297.691406 -302.097656 262.484375 -309.859375 C 227.285156 -317.628906 193.375 -329.796875 160.75 -346.359375 C 128.132812 -362.929688 101.210938 -386.226562 79.984375 -416.25 C 58.765625 -446.28125 48.15625 -485.628906 48.15625 -534.296875 C 48.15625 -590.210938 63.164062 -636.804688 93.1875 -674.078125 C 123.21875 -711.359375 164.378906 -739.054688 216.671875 -757.171875 C 268.960938 -775.296875 328.242188 -784.359375 394.515625 -784.359375 C 421.429688 -784.359375 452.234375 -783.0625 486.921875 -780.46875 C 521.609375 -777.882812 557.070312 -774.003906 593.3125 -768.828125 C 629.550781 -763.648438 662.171875 -757.4375 691.171875 -750.1875 L 691.171875 -531.1875 C 670.460938 -538.4375 642.242188 -544.90625 606.515625 -550.59375 C 570.796875 -556.289062 533.003906 -560.691406 493.140625 -563.796875 C 453.273438 -566.910156 415.738281 -568.46875 380.53125 -568.46875 C 340.144531 -568.46875 311.410156 -566.132812 294.328125 -561.46875 C 277.242188 -556.8125 268.703125 -549.828125 268.703125 -540.515625 C 268.703125 -527.046875 282.421875 -517.460938 309.859375 -511.765625 C 337.296875 -506.078125 373.28125 -499.09375 417.8125 -490.8125 C 471.65625 -481.488281 522.390625 -469.316406 570.015625 -454.296875 C 617.648438 -439.285156 656.476562 -416.25 686.5 -385.1875 C 716.53125 -354.125 731.546875 -309.082031 731.546875 -250.0625 C 731.546875 -188.96875 714.71875 -139.265625 681.0625 -100.953125 C 647.414062 -62.640625 602.117188 -34.679688 545.171875 -17.078125 C 488.222656 0.515625 424.539062 9.3125 354.125 9.3125 C 326.164062 9.3125 293.546875 8.015625 256.265625 5.421875 C 218.992188 2.835938 181.71875 -1.039062 144.4375 -6.21875 C 107.164062 -11.394531 73 -17.601562 41.9375 -24.84375 Z M 41.9375 -24.84375 "/></g></g></g><g fill="#f6f8f2" fill-opacity="1"><g transform="translate(1788.135572, 1106.067744)"><g><path d="M 515.65625 -750.1875 L 515.65625 -534.296875 L 298.21875 -534.296875 L 298.21875 -388.296875 C 298.21875 -335.484375 314.003906 -292.25 345.578125 -258.59375 C 377.160156 -224.945312 426.085938 -208.125 492.359375 -208.125 C 506.859375 -208.125 519.285156 -209.160156 529.640625 -211.234375 C 539.992188 -213.304688 550.347656 -214.859375 560.703125 -215.890625 L 560.703125 0 C 547.242188 1.03125 536.113281 2.582031 527.3125 4.65625 C 518.507812 6.726562 503.753906 7.765625 483.046875 7.765625 C 398.140625 7.765625 324.363281 -9.832031 261.71875 -45.03125 C 199.070312 -80.238281 150.660156 -127.867188 116.484375 -187.921875 C 82.316406 -247.984375 65.234375 -314.773438 65.234375 -388.296875 L 65.234375 -962.96875 L 298.21875 -962.96875 L 298.21875 -750.1875 Z M 515.65625 -750.1875 "/></g></g></g><g fill="#f6f8f2" fill-opacity="1"><g transform="translate(2390.771568, 1106.067744)"><g><path d="M 287.34375 -481.484375 C 311.15625 -474.234375 337.039062 -468.535156 365 -464.390625 C 392.957031 -460.253906 419.363281 -458.1875 444.21875 -458.1875 C 478.382812 -458.1875 505.300781 -462.84375 524.96875 -472.15625 C 544.644531 -481.476562 554.484375 -493.910156 554.484375 -509.453125 C 554.484375 -527.046875 544.90625 -539.722656 525.75 -547.484375 C 506.59375 -555.253906 482.003906 -559.140625 451.984375 -559.140625 C 409.523438 -559.140625 375.09375 -552.148438 348.6875 -538.171875 C 322.28125 -524.203125 301.832031 -505.304688 287.34375 -481.484375 Z M 726.890625 -242.296875 L 726.890625 -24.84375 C 687.546875 -14.488281 643.28125 -6.207031 594.09375 0 C 544.90625 6.207031 501.15625 9.3125 462.84375 9.3125 C 367.582031 9.3125 287.851562 -8.546875 223.65625 -44.265625 C 159.457031 -79.984375 111.566406 -127.867188 79.984375 -187.921875 C 48.398438 -247.984375 32.609375 -313.738281 32.609375 -385.1875 C 32.609375 -459.738281 48.914062 -527.039062 81.53125 -587.09375 C 114.15625 -647.15625 161.015625 -695.046875 222.109375 -730.765625 C 283.203125 -766.492188 357.238281 -784.359375 444.21875 -784.359375 C 511.519531 -784.359375 571.054688 -773.484375 622.828125 -751.734375 C 674.597656 -729.992188 715.238281 -699.96875 744.75 -661.65625 C 774.257812 -623.34375 789.015625 -578.300781 789.015625 -526.53125 C 789.015625 -477.863281 774.257812 -434.890625 744.75 -397.609375 C 715.238281 -360.335938 674.597656 -331.347656 622.828125 -310.640625 C 571.054688 -289.929688 511 -279.578125 442.65625 -279.578125 C 385.707031 -279.578125 329.796875 -292 274.921875 -316.84375 C 285.273438 -285.78125 306.238281 -261.1875 337.8125 -243.0625 C 369.394531 -224.945312 416.769531 -215.890625 479.9375 -215.890625 C 501.675781 -215.890625 528.078125 -216.925781 559.140625 -219 C 590.210938 -221.070312 621.019531 -224.175781 651.5625 -228.3125 C 682.101562 -232.457031 707.210938 -237.117188 726.890625 -242.296875 Z M 726.890625 -242.296875 "/></g></g></g><g fill="#f6f8f2" fill-opacity="1"><g transform="translate(3217.066598, 1106.067744)"><g><path d="M 310.640625 -388.296875 L 310.640625 0 L 77.65625 0 L 77.65625 -386.75 C 77.65625 -460.257812 94.222656 -527.039062 127.359375 -587.09375 C 160.492188 -647.15625 208.898438 -695.046875 272.578125 -730.765625 C 336.265625 -766.492188 414.1875 -784.359375 506.34375 -784.359375 C 514.625 -784.359375 524.457031 -783.582031 535.84375 -782.03125 C 547.238281 -780.476562 558.628906 -778.664062 570.015625 -776.59375 L 570.015625 -551.375 C 562.765625 -552.414062 553.445312 -553.96875 542.0625 -556.03125 C 530.675781 -558.101562 521.359375 -559.140625 514.109375 -559.140625 C 437.484375 -559.140625 384.414062 -542.832031 354.90625 -510.21875 C 325.394531 -477.601562 310.640625 -436.960938 310.640625 -388.296875 Z M 310.640625 -388.296875 "/></g></g></g><g fill="#f6f8f2" fill-opacity="1"><g transform="translate(3810.383298, 1106.067744)"><g><path d="M 69.890625 -776.59375 L 302.875 -776.59375 L 302.875 0 L 69.890625 0 Z M 69.890625 -776.59375 "/></g></g></g><g fill="#f6f8f2" fill-opacity="1"><g transform="translate(4183.147758, 1106.067744)"><g><path d="M 41.9375 -24.84375 L 41.9375 -242.296875 C 78.175781 -231.941406 126.84375 -223.140625 187.9375 -215.890625 C 249.03125 -208.640625 312.710938 -205.015625 378.984375 -205.015625 C 421.429688 -205.015625 453.785156 -207.085938 476.046875 -211.234375 C 498.316406 -215.378906 509.453125 -222.628906 509.453125 -232.984375 C 509.453125 -238.160156 505.828125 -243.59375 498.578125 -249.28125 C 491.328125 -254.976562 476.566406 -261.453125 454.296875 -268.703125 C 432.035156 -275.953125 399.164062 -283.203125 355.6875 -290.453125 C 328.757812 -295.628906 297.691406 -302.097656 262.484375 -309.859375 C 227.285156 -317.628906 193.375 -329.796875 160.75 -346.359375 C 128.132812 -362.929688 101.210938 -386.226562 79.984375 -416.25 C 58.765625 -446.28125 48.15625 -485.628906 48.15625 -534.296875 C 48.15625 -590.210938 63.164062 -636.804688 93.1875 -674.078125 C 123.21875 -711.359375 164.378906 -739.054688 216.671875 -757.171875 C 268.960938 -775.296875 328.242188 -784.359375 394.515625 -784.359375 C 421.429688 -784.359375 452.234375 -783.0625 486.921875 -780.46875 C 521.609375 -777.882812 557.070312 -774.003906 593.3125 -768.828125 C 629.550781 -763.648438 662.171875 -757.4375 691.171875 -750.1875 L 691.171875 -531.1875 C 670.460938 -538.4375 642.242188 -544.90625 606.515625 -550.59375 C 570.796875 -556.289062 533.003906 -560.691406 493.140625 -563.796875 C 453.273438 -566.910156 415.738281 -568.46875 380.53125 -568.46875 C 340.144531 -568.46875 311.410156 -566.132812 294.328125 -561.46875 C 277.242188 -556.8125 268.703125 -549.828125 268.703125 -540.515625 C 268.703125 -527.046875 282.421875 -517.460938 309.859375 -511.765625 C 337.296875 -506.078125 373.28125 -499.09375 417.8125 -490.8125 C 471.65625 -481.488281 522.390625 -469.316406 570.015625 -454.296875 C 617.648438 -439.285156 656.476562 -416.25 686.5 -385.1875 C 716.53125 -354.125 731.546875 -309.082031 731.546875 -250.0625 C 731.546875 -188.96875 714.71875 -139.265625 681.0625 -100.953125 C 647.414062 -62.640625 602.117188 -34.679688 545.171875 -17.078125 C 488.222656 0.515625 424.539062 9.3125 354.125 9.3125 C 326.164062 9.3125 293.546875 8.015625 256.265625 5.421875 C 218.992188 2.835938 181.71875 -1.039062 144.4375 -6.21875 C 107.164062 -11.394531 73 -17.601562 41.9375 -24.84375 Z M 41.9375 -24.84375 "/></g></g></g><g fill="#f6f8f2" fill-opacity="1"><g transform="translate(4947.315256, 1106.067744)"><g><path d="M 528.078125 -776.59375 L 761.0625 -776.59375 L 761.0625 -698.9375 C 761.0625 -638.875 750.445312 -581.660156 729.21875 -527.296875 C 707.988281 -472.941406 676.148438 -426.09375 633.703125 -386.75 L 838.71875 0 L 551.375 0 L 310.640625 -459.75 L 310.640625 0 L 77.65625 0 L 77.65625 -1087.234375 L 310.640625 -1087.234375 L 310.640625 -501.671875 L 346.359375 -501.671875 C 412.628906 -501.671875 459.484375 -521.34375 486.921875 -560.6875 C 514.359375 -600.039062 528.078125 -646.640625 528.078125 -700.484375 Z M 528.078125 -776.59375 "/></g></g></g><g fill="#f6f8f2" fill-opacity="1"><g transform="translate(3809.916353, 822.761319)"><g><path d="M 241.40625 -678.859375 L 330.859375 -633.53125 C 324.316406 -625.351562 317.164062 -617.382812 309.40625 -609.625 C 301.644531 -601.863281 293.679688 -594.71875 285.515625 -588.1875 L 215.671875 -633.53125 L 221.796875 -533.046875 C 200.554688 -536.316406 180.132812 -542.035156 160.53125 -550.203125 L 164.203125 -632.296875 L 80.875 -578.390625 C 77.601562 -589.003906 74.535156 -599.414062 71.671875 -609.625 C 68.816406 -619.84375 66.578125 -629.851562 64.953125 -639.65625 L 138.46875 -677.640625 L 49.015625 -722.984375 C 63.722656 -740.953125 78.835938 -755.65625 94.359375 -767.09375 L 164.203125 -721.75 L 158.078125 -822.234375 C 179.316406 -818.960938 199.738281 -813.242188 219.34375 -805.078125 L 215.671875 -722.984375 L 299 -778.125 C 303.082031 -767.5 306.550781 -757.082031 309.40625 -746.875 C 312.269531 -736.664062 314.109375 -726.25 314.921875 -715.625 Z M 241.40625 -678.859375 "/></g></g></g></svg>