<svg xmlns="http://www.w3.org/2000/svg" xmlns:xlink="http://www.w3.org/1999/xlink" width="5000" zoomAndPan="magnify" viewBox="0 0 3750 1424.99994" height="1900" preserveAspectRatio="xMidYMid meet" version="1.0"><defs><g/></defs><g fill="#199e79" fill-opacity="1"><g transform="translate(424.520539, 907.874904)"><g><path d="M 340.640625 -96.875 L 164.859375 -96.875 L 130.484375 0 L 3.125 0 L 194.546875 -478.15625 L 311.734375 -478.15625 L 503.15625 0 L 375.015625 0 Z M 203.140625 -205.484375 L 302.359375 -205.484375 L 253.140625 -344.546875 Z M 203.140625 -205.484375 "/></g></g></g><g fill="#199e79" fill-opacity="1"><g transform="translate(930.800339, 907.874904)"><g><path d="M 21.09375 -12.5 L 21.09375 -121.875 C 39.320312 -116.664062 63.800781 -112.238281 94.53125 -108.59375 C 125.269531 -104.945312 157.304688 -103.125 190.640625 -103.125 C 211.992188 -103.125 228.269531 -104.164062 239.46875 -106.25 C 250.664062 -108.332031 256.265625 -111.976562 256.265625 -117.1875 C 256.265625 -119.789062 254.441406 -122.523438 250.796875 -125.390625 C 247.148438 -128.253906 239.726562 -131.507812 228.53125 -135.15625 C 217.332031 -138.8125 200.796875 -142.460938 178.921875 -146.109375 C 165.378906 -148.710938 149.75 -151.96875 132.03125 -155.875 C 114.320312 -159.78125 97.265625 -165.898438 80.859375 -174.234375 C 64.453125 -182.566406 50.910156 -194.285156 40.234375 -209.390625 C 29.554688 -224.492188 24.21875 -244.285156 24.21875 -268.765625 C 24.21875 -296.890625 31.769531 -320.328125 46.875 -339.078125 C 61.976562 -357.828125 82.679688 -371.757812 108.984375 -380.875 C 135.296875 -390 165.117188 -394.5625 198.453125 -394.5625 C 211.992188 -394.5625 227.488281 -393.910156 244.9375 -392.609375 C 262.382812 -391.304688 280.222656 -389.347656 298.453125 -386.734375 C 316.679688 -384.128906 333.085938 -381.003906 347.671875 -377.359375 L 347.671875 -267.203125 C 337.253906 -270.847656 323.0625 -274.101562 305.09375 -276.96875 C 287.125 -279.832031 268.113281 -282.046875 248.0625 -283.609375 C 228.007812 -285.171875 209.128906 -285.953125 191.421875 -285.953125 C 171.109375 -285.953125 156.65625 -284.78125 148.0625 -282.4375 C 139.46875 -280.09375 135.171875 -276.578125 135.171875 -271.890625 C 135.171875 -265.117188 142.070312 -260.300781 155.875 -257.4375 C 169.675781 -254.570312 187.773438 -251.054688 210.171875 -246.890625 C 237.253906 -242.203125 262.773438 -236.082031 286.734375 -228.53125 C 310.691406 -220.976562 330.222656 -209.390625 345.328125 -193.765625 C 360.429688 -178.140625 367.984375 -155.476562 367.984375 -125.78125 C 367.984375 -95.050781 359.519531 -70.050781 342.59375 -50.78125 C 325.664062 -31.507812 302.878906 -17.445312 274.234375 -8.59375 C 245.585938 0.257812 213.554688 4.6875 178.140625 4.6875 C 164.078125 4.6875 147.664062 4.035156 128.90625 2.734375 C 110.15625 1.429688 91.40625 -0.519531 72.65625 -3.125 C 53.90625 -5.726562 36.71875 -8.851562 21.09375 -12.5 Z M 21.09375 -12.5 "/></g></g></g><g fill="#199e79" fill-opacity="1"><g transform="translate(1315.19801, 907.874904)"><g><path d="M 259.390625 -377.359375 L 259.390625 -268.765625 L 150.015625 -268.765625 L 150.015625 -195.328125 C 150.015625 -168.765625 157.957031 -147.015625 173.84375 -130.078125 C 189.726562 -113.148438 214.335938 -104.6875 247.671875 -104.6875 C 254.960938 -104.6875 261.210938 -105.207031 266.421875 -106.25 C 271.628906 -107.289062 276.835938 -108.070312 282.046875 -108.59375 L 282.046875 0 C 275.273438 0.519531 269.675781 1.300781 265.25 2.34375 C 260.820312 3.382812 253.398438 3.90625 242.984375 3.90625 C 200.273438 3.90625 163.160156 -4.945312 131.640625 -22.65625 C 100.128906 -40.363281 75.78125 -64.320312 58.59375 -94.53125 C 41.40625 -124.75 32.8125 -158.347656 32.8125 -195.328125 L 32.8125 -484.40625 L 150.015625 -484.40625 L 150.015625 -377.359375 Z M 259.390625 -377.359375 "/></g></g></g><g fill="#199e79" fill-opacity="1"><g transform="translate(1618.340807, 907.874904)"><g><path d="M 144.546875 -242.203125 C 156.523438 -238.554688 169.546875 -235.691406 183.609375 -233.609375 C 197.671875 -231.523438 210.953125 -230.484375 223.453125 -230.484375 C 240.640625 -230.484375 254.179688 -232.828125 264.078125 -237.515625 C 273.972656 -242.203125 278.921875 -248.453125 278.921875 -256.265625 C 278.921875 -265.117188 274.101562 -271.5 264.46875 -275.40625 C 254.832031 -279.3125 242.460938 -281.265625 227.359375 -281.265625 C 206.003906 -281.265625 188.6875 -277.75 175.40625 -270.71875 C 162.125 -263.6875 151.835938 -254.179688 144.546875 -242.203125 Z M 365.640625 -121.875 L 365.640625 -12.5 C 345.847656 -7.289062 323.582031 -3.125 298.84375 0 C 274.101562 3.125 252.097656 4.6875 232.828125 4.6875 C 184.910156 4.6875 144.800781 -4.296875 112.5 -22.265625 C 80.207031 -40.234375 56.117188 -64.320312 40.234375 -94.53125 C 24.347656 -124.75 16.40625 -157.828125 16.40625 -193.765625 C 16.40625 -231.265625 24.609375 -265.117188 41.015625 -295.328125 C 57.421875 -325.535156 80.988281 -349.625 111.71875 -367.59375 C 142.457031 -385.570312 179.703125 -394.5625 223.453125 -394.5625 C 257.304688 -394.5625 287.253906 -389.085938 313.296875 -378.140625 C 339.335938 -367.203125 359.78125 -352.097656 374.625 -332.828125 C 389.476562 -313.554688 396.90625 -290.898438 396.90625 -264.859375 C 396.90625 -240.378906 389.476562 -218.765625 374.625 -200.015625 C 359.78125 -181.265625 339.335938 -166.679688 313.296875 -156.265625 C 287.253906 -145.847656 257.046875 -140.640625 222.671875 -140.640625 C 194.023438 -140.640625 165.898438 -146.890625 138.296875 -159.390625 C 143.503906 -143.765625 154.050781 -131.390625 169.9375 -122.265625 C 185.820312 -113.148438 209.648438 -108.59375 241.421875 -108.59375 C 252.359375 -108.59375 265.640625 -109.113281 281.265625 -110.15625 C 296.890625 -111.195312 312.382812 -112.757812 327.75 -114.84375 C 343.113281 -116.925781 355.742188 -119.269531 365.640625 -121.875 Z M 365.640625 -121.875 "/></g></g></g><g fill="#199e79" fill-opacity="1"><g transform="translate(2033.990367, 907.874904)"><g><path d="M 156.265625 -195.328125 L 156.265625 0 L 39.0625 0 L 39.0625 -194.546875 C 39.0625 -231.523438 47.394531 -265.117188 64.0625 -295.328125 C 80.726562 -325.535156 105.078125 -349.625 137.109375 -367.59375 C 169.148438 -385.570312 208.347656 -394.5625 254.703125 -394.5625 C 258.867188 -394.5625 263.816406 -394.171875 269.546875 -393.390625 C 275.273438 -392.609375 281.003906 -391.695312 286.734375 -390.65625 L 286.734375 -277.359375 C 283.085938 -277.878906 278.398438 -278.660156 272.671875 -279.703125 C 266.941406 -280.742188 262.253906 -281.265625 258.609375 -281.265625 C 220.066406 -281.265625 193.375 -273.0625 178.53125 -256.65625 C 163.6875 -240.25 156.265625 -219.804688 156.265625 -195.328125 Z M 156.265625 -195.328125 "/></g></g></g><g fill="#199e79" fill-opacity="1"><g transform="translate(2332.445297, 907.874904)"><g><path d="M 35.15625 -390.65625 L 152.359375 -390.65625 L 152.359375 0 L 35.15625 0 Z M 35.15625 -390.65625 "/></g></g></g><g fill="#199e79" fill-opacity="1"><g transform="translate(2519.956269, 907.874904)"><g><path d="M 21.09375 -12.5 L 21.09375 -121.875 C 39.320312 -116.664062 63.800781 -112.238281 94.53125 -108.59375 C 125.269531 -104.945312 157.304688 -103.125 190.640625 -103.125 C 211.992188 -103.125 228.269531 -104.164062 239.46875 -106.25 C 250.664062 -108.332031 256.265625 -111.976562 256.265625 -117.1875 C 256.265625 -119.789062 254.441406 -122.523438 250.796875 -125.390625 C 247.148438 -128.253906 239.726562 -131.507812 228.53125 -135.15625 C 217.332031 -138.8125 200.796875 -142.460938 178.921875 -146.109375 C 165.378906 -148.710938 149.75 -151.96875 132.03125 -155.875 C 114.320312 -159.78125 97.265625 -165.898438 80.859375 -174.234375 C 64.453125 -182.566406 50.910156 -194.285156 40.234375 -209.390625 C 29.554688 -224.492188 24.21875 -244.285156 24.21875 -268.765625 C 24.21875 -296.890625 31.769531 -320.328125 46.875 -339.078125 C 61.976562 -357.828125 82.679688 -371.757812 108.984375 -380.875 C 135.296875 -390 165.117188 -394.5625 198.453125 -394.5625 C 211.992188 -394.5625 227.488281 -393.910156 244.9375 -392.609375 C 262.382812 -391.304688 280.222656 -389.347656 298.453125 -386.734375 C 316.679688 -384.128906 333.085938 -381.003906 347.671875 -377.359375 L 347.671875 -267.203125 C 337.253906 -270.847656 323.0625 -274.101562 305.09375 -276.96875 C 287.125 -279.832031 268.113281 -282.046875 248.0625 -283.609375 C 228.007812 -285.171875 209.128906 -285.953125 191.421875 -285.953125 C 171.109375 -285.953125 156.65625 -284.78125 148.0625 -282.4375 C 139.46875 -280.09375 135.171875 -276.578125 135.171875 -271.890625 C 135.171875 -265.117188 142.070312 -260.300781 155.875 -257.4375 C 169.675781 -254.570312 187.773438 -251.054688 210.171875 -246.890625 C 237.253906 -242.203125 262.773438 -236.082031 286.734375 -228.53125 C 310.691406 -220.976562 330.222656 -209.390625 345.328125 -193.765625 C 360.429688 -178.140625 367.984375 -155.476562 367.984375 -125.78125 C 367.984375 -95.050781 359.519531 -70.050781 342.59375 -50.78125 C 325.664062 -31.507812 302.878906 -17.445312 274.234375 -8.59375 C 245.585938 0.257812 213.554688 4.6875 178.140625 4.6875 C 164.078125 4.6875 147.664062 4.035156 128.90625 2.734375 C 110.15625 1.429688 91.40625 -0.519531 72.65625 -3.125 C 53.90625 -5.726562 36.71875 -8.851562 21.09375 -12.5 Z M 21.09375 -12.5 "/></g></g></g><g fill="#199e79" fill-opacity="1"><g transform="translate(2904.353939, 907.874904)"><g><path d="M 265.640625 -390.65625 L 382.828125 -390.65625 L 382.828125 -351.578125 C 382.828125 -321.367188 377.488281 -292.59375 366.8125 -265.25 C 356.132812 -237.90625 340.117188 -214.335938 318.765625 -194.546875 L 421.90625 0 L 277.359375 0 L 156.265625 -231.265625 L 156.265625 0 L 39.0625 0 L 39.0625 -546.90625 L 156.265625 -546.90625 L 156.265625 -252.359375 L 174.234375 -252.359375 C 207.566406 -252.359375 231.132812 -262.253906 244.9375 -282.046875 C 258.738281 -301.835938 265.640625 -325.273438 265.640625 -352.359375 Z M 265.640625 -390.65625 "/></g></g></g><g fill="#199e79" fill-opacity="1"><g transform="translate(2332.21042, 765.363813)"><g><path d="M 121.4375 -341.484375 L 166.421875 -318.6875 C 163.140625 -314.570312 159.546875 -310.5625 155.640625 -306.65625 C 151.734375 -302.757812 147.726562 -299.164062 143.625 -295.875 L 108.484375 -318.6875 L 111.5625 -268.140625 C 100.882812 -269.785156 90.613281 -272.660156 80.75 -276.765625 L 82.59375 -318.0625 L 40.6875 -290.9375 C 39.039062 -296.28125 37.5 -301.519531 36.0625 -306.65625 C 34.625 -311.789062 33.492188 -316.828125 32.671875 -321.765625 L 69.65625 -340.875 L 24.65625 -363.671875 C 32.050781 -372.710938 39.65625 -380.113281 47.46875 -385.875 L 82.59375 -363.0625 L 79.515625 -413.609375 C 90.203125 -411.960938 100.476562 -409.085938 110.34375 -404.984375 L 108.484375 -363.671875 L 150.40625 -391.421875 C 152.457031 -386.078125 154.203125 -380.835938 155.640625 -375.703125 C 157.078125 -370.566406 158.003906 -365.328125 158.421875 -359.984375 Z M 121.4375 -341.484375 "/></g></g></g></svg>